<?xml version="1.0" encoding="UTF-8" standalone="no"?>
<!-- Created with Inkscape (http://www.inkscape.org/) -->

<svg
   width="120.30354mm"
   height="109.34085mm"
   viewBox="0 0 120.30354 109.34085"
   version="1.1"
   id="svg1"
   xmlns:inkscape="http://www.inkscape.org/namespaces/inkscape"
   xmlns:sodipodi="http://sodipodi.sourceforge.net/DTD/sodipodi-0.dtd"
   xmlns="http://www.w3.org/2000/svg"
   xmlns:svg="http://www.w3.org/2000/svg">
  <sodipodi:namedview
     id="namedview1"
     pagecolor="#ffffff"
     bordercolor="#000000"
     borderopacity="0.25"
     inkscape:showpageshadow="2"
     inkscape:pageopacity="0.0"
     inkscape:pagecheckerboard="0"
     inkscape:deskcolor="#d1d1d1"
     inkscape:document-units="mm">
    <inkscape:page
       x="0"
       y="-7.8890074e-13"
       width="120.30354"
       height="109.34084"
       id="page2"
       margin="0"
       bleed="0" />
  </sodipodi:namedview>
  <defs
     id="defs1">
    <clipPath
       clipPathUnits="userSpaceOnUse"
       id="clipPath3">
      <path
         d="m 43.5,104.5 h 311.227 v 16 H 43.5 Z"
         id="path3" />
    </clipPath>
    <clipPath
       clipPathUnits="userSpaceOnUse"
       id="clipPath4">
      <path
         d="m 48,108 h 136 v 10.25 H 48 Z"
         transform="translate(-48.000001,-116.25)"
         id="path4" />
    </clipPath>
    <clipPath
       clipPathUnits="userSpaceOnUse"
       id="clipPath7">
      <path
         d="m 43.5,120.5 h 105 v 16 h -105 z"
         id="path7" />
    </clipPath>
    <clipPath
       clipPathUnits="userSpaceOnUse"
       id="clipPath8">
      <path
         d="m 47,125 h 98.5 v 8 H 47 Z"
         transform="translate(-46.500001,-132.25)"
         id="path8" />
    </clipPath>
    <clipPath
       clipPathUnits="userSpaceOnUse"
       id="clipPath10">
      <path
         d="m 43.5,163 h 311.227 v 16 H 43.5 Z"
         id="path10" />
    </clipPath>
    <clipPath
       clipPathUnits="userSpaceOnUse"
       id="clipPath11">
      <path
         d="m 48,166 h 148 v 10.75 H 48 Z"
         transform="translate(-48.000001,-174.75)"
         id="path11" />
    </clipPath>
    <clipPath
       clipPathUnits="userSpaceOnUse"
       id="clipPath14">
      <path
         d="m 169.711,191 h 27 v 16 h -27 z"
         id="path14" />
    </clipPath>
    <clipPath
       clipPathUnits="userSpaceOnUse"
       id="clipPath15">
      <path
         d="m 169.711,191 h 27 v 16 h -27 z"
         transform="translate(-172.7125,-202.75)"
         id="path15" />
    </clipPath>
    <clipPath
       clipPathUnits="userSpaceOnUse"
       id="clipPath17">
      <path
         d="m 211.488,191 h 27 v 16 h -27 z"
         id="path17" />
    </clipPath>
    <clipPath
       clipPathUnits="userSpaceOnUse"
       id="clipPath18">
      <path
         d="m 211.488,191 h 27 v 16 h -27 z"
         transform="translate(-214.48751,-202.75)"
         id="path18" />
    </clipPath>
    <clipPath
       clipPathUnits="userSpaceOnUse"
       id="clipPath20">
      <path
         d="m 43.5,233.5 h 311.227 v 16 H 43.5 Z"
         id="path20" />
    </clipPath>
    <clipPath
       clipPathUnits="userSpaceOnUse"
       id="clipPath21">
      <path
         d="m 48,237 h 176 v 10.25 H 48 Z"
         transform="translate(-48.000001,-245.25001)"
         id="path21" />
    </clipPath>
    <clipPath
       clipPathUnits="userSpaceOnUse"
       id="clipPath24">
      <path
         d="m 43.5,249.5 h 190.887 v 16 H 43.5 Z"
         id="path24" />
    </clipPath>
    <clipPath
       clipPathUnits="userSpaceOnUse"
       id="clipPath25">
      <path
         d="m 43.5,249.5 h 190.887 v 16 H 43.5 Z"
         transform="translate(-48.000001,-261.25)"
         id="path25" />
    </clipPath>
    <clipPath
       clipPathUnits="userSpaceOnUse"
       id="clipPath27">
      <path
         d="m 43.5,249.5 h 190.887 v 16 H 43.5 Z"
         id="path27" />
    </clipPath>
    <clipPath
       clipPathUnits="userSpaceOnUse"
       id="clipPath29">
      <path
         d="m 111.586,277.5 h 39 v 16 h -39 z"
         id="path29" />
    </clipPath>
    <clipPath
       clipPathUnits="userSpaceOnUse"
       id="clipPath30">
      <path
         d="m 111.586,277.5 h 39 v 16 h -39 z"
         transform="translate(-114.58751,-289.25001)"
         id="path30" />
    </clipPath>
    <clipPath
       clipPathUnits="userSpaceOnUse"
       id="clipPath32">
      <path
         d="M 43.5,317 H 50 v 7 h -6.5 z"
         id="path32" />
    </clipPath>
    <clipPath
       clipPathUnits="userSpaceOnUse"
       id="clipPath34">
      <path
         d="M 43.5,326 H 50 v 2 h -6.5 z"
         id="path34" />
    </clipPath>
    <linearGradient
       x1="0"
       y1="96.551727"
       x2="0"
       y2="55.172413"
       gradientUnits="userSpaceOnUse"
       gradientTransform="matrix(0.21753723,0,0,0.21753723,44.979167,169.27958)"
       spreadMethod="pad"
       id="linearGradient62">
      <stop
         style="stop-opacity:1;stop-color:#4daf4a"
         offset="0"
         id="stop59" />
      <stop
         style="stop-opacity:1;stop-color:#4daf4a"
         offset="0"
         id="stop60" />
      <stop
         style="stop-opacity:1;stop-color:#4daf4a"
         offset="1"
         id="stop61" />
      <stop
         style="stop-opacity:1;stop-color:#4daf4a"
         offset="1"
         id="stop62" />
    </linearGradient>
  </defs>
  <g
     inkscape:label="Layer 1"
     inkscape:groupmode="layer"
     id="layer1"
     transform="translate(-44.979165,-93.927092)">
    <text
       id="text1"
       xml:space="preserve"
       x="44.979168"
       y="97.31292"
       style="font-size:4.23333px;stroke-width:0.352778"><tspan
         id="tspan1"
         style="font-variant:normal;font-weight:normal;font-size:4.23333px;font-family:'DejaVu Serif';writing-mode:lr-tb;fill:#000000;fill-opacity:1;fill-rule:nonzero;stroke:none;stroke-width:0.352778"
         x="44.979168"
         y="97.31292">Flux de température extérieure :</tspan></text>
    <path
       id="path2"
       d="m 46.5,104.75 h 305.227 c 1.515,0 2.75,1.23 2.75,2.75 v 10 c 0,1.52 -1.235,2.75 -2.75,2.75 H 46.5 c -1.52,0 -2.75,-1.23 -2.75,-2.75 v -10 c 0,-1.52 1.23,-2.75 2.75,-2.75 z"
       style="fill:#e9e9ed;fill-opacity:1;fill-rule:nonzero;stroke:#8f8f9d;stroke-width:0.5;stroke-linecap:butt;stroke-linejoin:miter;stroke-miterlimit:10;stroke-dasharray:none;stroke-opacity:1"
       transform="matrix(0.35277776,0,0,0.35277776,29.633334,61.505978)"
       clip-path="url(#clipPath3)" />
    <text
       id="text3"
       xml:space="preserve"
       transform="matrix(0.35277776,0,0,0.35277776,46.566667,102.51639)"
       clip-path="url(#clipPath4)"><tspan
         id="tspan3"
         style="font-variant:normal;font-weight:normal;font-size:10px;font-family:Ubuntu;writing-mode:lr-tb;fill:#000000;fill-opacity:1;fill-rule:nonzero;stroke:none"
         x="0"
         dx="0 0 0 -0.15000001 0 0 0 0 0 -0.090000004 0 0 -0.20999999 -0.27000001 -0.15000001"
         y="0">outdoor_temp/OWM = ﬂux 35</tspan></text>
    <path
       id="path5"
       d="m 150.95996,100.96735 0.78951,0.90275 h 0.22472 l 0.78952,-0.90275 v -0.22437 h -0.22578 l -0.67522,0.7881 -0.67662,-0.7881 h -0.22613"
       style="fill:#000000;fill-opacity:1;fill-rule:nonzero;stroke:none;stroke-width:0.352778" />
    <path
       id="path6"
       d="m 45,120.75 h 102 c 0.691,0 1.25,0.559 1.25,1.25 v 13 c 0,0.691 -0.559,1.25 -1.25,1.25 H 45 c -0.691,0 -1.25,-0.559 -1.25,-1.25 v -13 c 0,-0.691 0.559,-1.25 1.25,-1.25 z"
       style="fill:#ffffff;fill-opacity:1;fill-rule:nonzero;stroke:#8f8f9d;stroke-width:0.5;stroke-linecap:butt;stroke-linejoin:miter;stroke-miterlimit:10;stroke-dasharray:none;stroke-opacity:1"
       transform="matrix(0.35277776,0,0,0.35277776,29.633334,61.505978)"
       clip-path="url(#clipPath7)" />
    <text
       id="text7"
       xml:space="preserve"
       transform="matrix(0.35277776,0,0,0.35277776,46.0375,108.16084)"
       clip-path="url(#clipPath8)"><tspan
         id="tspan7"
         style="font-variant:normal;font-weight:normal;font-size:10px;font-family:Ubuntu;writing-mode:lr-tb;fill:#000000;fill-opacity:1;fill-rule:nonzero;stroke:none"
         x="0"
         y="0">2025-08-25T15:00:00.000Z</tspan></text>
    <text
       id="text8"
       xml:space="preserve"
       x="44.979168"
       y="117.95042"
       style="font-size:4.23333px;stroke-width:0.352778"><tspan
         id="tspan8"
         style="font-variant:normal;font-weight:normal;font-size:4.23333px;font-family:'DejaVu Serif';writing-mode:lr-tb;fill:#000000;fill-opacity:1;fill-rule:nonzero;stroke:none;stroke-width:0.352778"
         x="44.979168"
         y="117.95042">ﬂux énergie :</tspan></text>
    <path
       id="path9"
       d="m 46.5,163.25 h 305.227 c 1.515,0 2.75,1.23 2.75,2.75 v 10 c 0,1.52 -1.235,2.75 -2.75,2.75 H 46.5 c -1.52,0 -2.75,-1.23 -2.75,-2.75 v -10 c 0,-1.52 1.23,-2.75 2.75,-2.75 z"
       style="fill:#e9e9ed;fill-opacity:1;fill-rule:nonzero;stroke:#8f8f9d;stroke-width:0.5;stroke-linecap:butt;stroke-linejoin:miter;stroke-miterlimit:10;stroke-dasharray:none;stroke-opacity:1"
       transform="matrix(0.35277776,0,0,0.35277776,29.633334,61.505978)"
       clip-path="url(#clipPath10)" />
    <text
       id="text10"
       xml:space="preserve"
       transform="matrix(0.35277776,0,0,0.35277776,46.566667,123.15389)"
       clip-path="url(#clipPath11)"><tspan
         id="tspan10"
         style="font-variant:normal;font-weight:normal;font-size:10px;font-family:Ubuntu;writing-mode:lr-tb;fill:#000000;fill-opacity:1;fill-rule:nonzero;stroke:none"
         x="0"
         y="0">regulations/regulonsud = ﬂux 48</tspan></text>
    <path
       id="path12"
       d="m 150.95996,121.60484 0.78951,0.90276 h 0.22472 l 0.78952,-0.90276 v -0.22436 h -0.22578 l -0.67522,0.7881 -0.67662,-0.7881 h -0.22613"
       style="fill:#000000;fill-opacity:1;fill-rule:nonzero;stroke:none;stroke-width:0.352778" />
    <text
       id="text12"
       xml:space="preserve"
       x="44.979168"
       y="133.03168"
       style="font-size:4.23333px;stroke-width:0.352778"><tspan
         id="tspan12"
         style="font-variant:normal;font-weight:normal;font-size:4.23333px;font-family:'DejaVu Serif';writing-mode:lr-tb;fill:#000000;fill-opacity:1;fill-rule:nonzero;stroke:none;stroke-width:0.352778"
         x="44.979168"
         y="133.03168">Confort intérieur de </tspan></text>
    <path
       id="path13"
       d="m 171.211,191.25 h 24 c 0.691,0 1.25,0.559 1.25,1.25 v 13 c 0,0.691 -0.559,1.25 -1.25,1.25 h -24 c -0.688,0 -1.25,-0.559 -1.25,-1.25 v -13 c 0,-0.691 0.562,-1.25 1.25,-1.25 z"
       style="fill:#ffffff;fill-opacity:1;fill-rule:nonzero;stroke:#8f8f9d;stroke-width:0.5;stroke-linecap:butt;stroke-linejoin:miter;stroke-miterlimit:10;stroke-dasharray:none;stroke-opacity:1"
       transform="matrix(0.35277776,0,0,0.35277776,29.633334,61.505978)"
       clip-path="url(#clipPath14)" />
    <text
       id="text14"
       xml:space="preserve"
       transform="matrix(0.35277776,0,0,0.35277776,90.562464,133.03167)"
       clip-path="url(#clipPath15)"><tspan
         id="tspan14"
         style="font-variant:normal;font-weight:normal;font-size:10px;font-family:Ubuntu;writing-mode:lr-tb;fill:#000000;fill-opacity:1;fill-rule:nonzero;stroke:none"
         x="0"
         y="0">19</tspan></text>
    <text
       id="text15"
       xml:space="preserve"
       x="99.029129"
       y="133.03168"
       style="font-size:4.23333px;stroke-width:0.352778"><tspan
         id="tspan15"
         style="font-variant:normal;font-weight:normal;font-size:4.23333px;font-family:'DejaVu Serif';writing-mode:lr-tb;fill:#000000;fill-opacity:1;fill-rule:nonzero;stroke:none;stroke-width:0.352778"
         x="99.029129"
         y="133.03168"> à </tspan></text>
    <path
       id="path16"
       d="m 212.988,191.25 h 24 c 0.688,0 1.25,0.559 1.25,1.25 v 13 c 0,0.691 -0.562,1.25 -1.25,1.25 h -24 c -0.691,0 -1.25,-0.559 -1.25,-1.25 v -13 c 0,-0.691 0.559,-1.25 1.25,-1.25 z"
       style="fill:#ffffff;fill-opacity:1;fill-rule:nonzero;stroke:#8f8f9d;stroke-width:0.5;stroke-linecap:butt;stroke-linejoin:miter;stroke-miterlimit:10;stroke-dasharray:none;stroke-opacity:1"
       transform="matrix(0.35277776,0,0,0.35277776,29.633334,61.505978)"
       clip-path="url(#clipPath17)" />
    <text
       id="text17"
       xml:space="preserve"
       transform="matrix(0.35277776,0,0,0.35277776,105.29976,133.03167)"
       clip-path="url(#clipPath18)"><tspan
         id="tspan17"
         style="font-variant:normal;font-weight:normal;font-size:10px;font-family:Ubuntu;writing-mode:lr-tb;fill:#000000;fill-opacity:1;fill-rule:nonzero;stroke:none"
         x="0"
         y="0">21</tspan></text>
    <text
       id="text18"
       xml:space="preserve"
       x="113.76642"
       y="133.03168"
       style="font-size:4.23333px;stroke-width:0.352778"><tspan
         id="tspan18"
         style="font-variant:normal;font-weight:normal;font-size:4.23333px;font-family:'DejaVu Serif';writing-mode:lr-tb;fill:#000000;fill-opacity:1;fill-rule:nonzero;stroke:none;stroke-width:0.352778"
         x="113.76642"
         y="133.03168">°C</tspan><tspan
         id="tspan19"
         style="font-variant:normal;font-weight:normal;font-size:4.23333px;font-family:'DejaVu Serif';writing-mode:lr-tb;fill:#000000;fill-opacity:1;fill-rule:nonzero;stroke:none;stroke-width:0.352778"
         x="44.979164"
         y="142.82126">Flux de température intérieure :</tspan></text>
    <path
       id="path19"
       d="m 46.5,233.75 h 305.227 c 1.515,0 2.75,1.23 2.75,2.75 v 10 c 0,1.52 -1.235,2.75 -2.75,2.75 H 46.5 c -1.52,0 -2.75,-1.23 -2.75,-2.75 v -10 c 0,-1.52 1.23,-2.75 2.75,-2.75 z"
       style="fill:#e9e9ed;fill-opacity:1;fill-rule:nonzero;stroke:#8f8f9d;stroke-width:0.5;stroke-linecap:butt;stroke-linejoin:miter;stroke-miterlimit:10;stroke-dasharray:none;stroke-opacity:1"
       transform="matrix(0.35277776,0,0,0.35277776,29.633334,61.505978)"
       clip-path="url(#clipPath20)" />
    <text
       id="text20"
       xml:space="preserve"
       transform="matrix(0.35277776,0,0,0.35277776,46.566667,148.02473)"
       clip-path="url(#clipPath21)"><tspan
         id="tspan20"
         style="font-variant:normal;font-weight:normal;font-size:10px;font-family:Ubuntu;writing-mode:lr-tb;fill:#000000;fill-opacity:1;fill-rule:nonzero;stroke:none"
         x="0"
         dx="0 0 0 0 0 -0.090000004 0 0 -0.22"
         y="0">SUD_temp/12220822_Johann = ﬂux 25</tspan></text>
    <path
       id="path22"
       d="m 150.95996,146.47568 0.78951,0.90275 h 0.22472 l 0.78952,-0.90275 v -0.22437 h -0.22578 l -0.67522,0.78811 -0.67662,-0.78811 h -0.22613"
       style="fill:#000000;fill-opacity:1;fill-rule:nonzero;stroke:none;stroke-width:0.352778" />
    <path
       id="path23"
       d="m 46.5,249.75 h 184.887 c 1.519,0 2.75,1.23 2.75,2.75 v 10 c 0,1.52 -1.231,2.75 -2.75,2.75 H 46.5 c -1.52,0 -2.75,-1.23 -2.75,-2.75 v -10 c 0,-1.52 1.23,-2.75 2.75,-2.75 z"
       style="fill:#e9e9ed;fill-opacity:1;fill-rule:nonzero;stroke:#8f8f9d;stroke-width:0.5;stroke-linecap:butt;stroke-linejoin:miter;stroke-miterlimit:10;stroke-dasharray:none;stroke-opacity:1"
       transform="matrix(0.35277776,0,0,0.35277776,29.633334,61.505978)"
       clip-path="url(#clipPath24)" />
    <text
       id="text24"
       xml:space="preserve"
       transform="matrix(0.35277776,0,0,0.35277776,46.566667,153.66917)"
       clip-path="url(#clipPath25)"><tspan
         id="tspan24"
         style="font-variant:normal;font-weight:normal;font-size:10px;font-family:Ubuntu;writing-mode:lr-tb;fill:#000000;fill-opacity:1;fill-rule:nonzero;stroke:none"
         x="0"
         y="0">sud</tspan></text>
    <path
       id="path26"
       d="m 223.582,256.859 2.234,2.559 h 0.641 l 2.234,-2.559 v -0.636 h -0.636 l -1.918,2.234 -1.914,-2.234 h -0.641"
       style="fill:#000000;fill-opacity:1;fill-rule:nonzero;stroke:none"
       transform="matrix(0.35277776,0,0,0.35277776,29.633334,61.505978)"
       clip-path="url(#clipPath27)" />
    <text
       id="text27"
       xml:space="preserve"
       x="44.979168"
       y="163.54695"
       style="font-size:4.23333px;stroke-width:0.352778"><tspan
         id="tspan27"
         style="font-variant:normal;font-weight:normal;font-size:4.23333px;font-family:'DejaVu Serif';writing-mode:lr-tb;fill:#000000;fill-opacity:1;fill-rule:nonzero;stroke:none;stroke-width:0.352778"
         x="44.979168"
         y="163.54695">Précision : </tspan></text>
    <path
       id="path28"
       d="m 113.086,277.75 h 36 c 0.691,0 1.25,0.559 1.25,1.25 v 13 c 0,0.691 -0.559,1.25 -1.25,1.25 h -36 c -0.688,0 -1.25,-0.559 -1.25,-1.25 v -13 c 0,-0.691 0.562,-1.25 1.25,-1.25 z"
       style="fill:#ffffff;fill-opacity:1;fill-rule:nonzero;stroke:#8f8f9d;stroke-width:0.5;stroke-linecap:butt;stroke-linejoin:miter;stroke-miterlimit:10;stroke-dasharray:none;stroke-opacity:1"
       transform="matrix(0.35277776,0,0,0.35277776,29.633334,61.505978)"
       clip-path="url(#clipPath29)" />
    <text
       id="text29"
       xml:space="preserve"
       transform="matrix(0.35277776,0,0,0.35277776,70.057259,163.54695)"
       clip-path="url(#clipPath30)"><tspan
         id="tspan29"
         style="font-variant:normal;font-weight:normal;font-size:10px;font-family:Ubuntu;writing-mode:lr-tb;fill:#000000;fill-opacity:1;fill-rule:nonzero;stroke:none"
         x="0"
         y="0">3600</tspan></text>
    <text
       id="text30"
       xml:space="preserve"
       x="82.757256"
       y="163.54695"
       style="font-size:4.23333px;stroke-width:0.352778"><tspan
         id="tspan30"
         style="font-variant:normal;font-weight:normal;font-size:4.23333px;font-family:'DejaVu Serif';writing-mode:lr-tb;fill:#000000;fill-opacity:1;fill-rule:nonzero;stroke:none;stroke-width:0.352778"
         x="82.757256"
         y="163.54695"> secondes</tspan></text>
    <text
       id="text31"
       xml:space="preserve"
       x="70.13829"
       y="172.54263"
       style="font-size:4.23333px;stroke-width:0.352778"><tspan
         id="tspan31"
         style="font-variant:normal;font-weight:normal;font-size:2.61056px;font-family:'DejaVu Serif';writing-mode:lr-tb;fill:#000000;fill-opacity:1;fill-rule:nonzero;stroke:none;stroke-width:0.352778"
         x="70.13829"
         y="172.54263">Données brutes pour la semaine du lundi 10 novembre 2025</tspan></text>
    <path
       id="path31"
       d="m 43.5,317.832 h 6.168 V 324 H 43.5 Z"
       style="fill:#90cef4;fill-opacity:1;fill-rule:nonzero;stroke:none"
       transform="matrix(0.35277776,0,0,0.35277776,29.633334,61.505978)"
       clip-path="url(#clipPath32)" />
    <text
       id="text32"
       xml:space="preserve"
       x="47.589615"
       y="175.18417"
       style="font-size:4.23333px;stroke-width:0.352778"><tspan
         id="tspan32"
         style="font-variant:normal;font-weight:normal;font-size:1.52276px;font-family:'DejaVu Serif';writing-mode:lr-tb;fill:#000000;fill-opacity:1;fill-rule:nonzero;stroke:none;stroke-width:0.352778"
         x="47.589615"
         y="175.18417">occupation</tspan></text>
    <path
       id="path33"
       d="m 43.5,327.082 h 6.168"
       style="fill:none;stroke:#ff0000;stroke-width:0.616641;stroke-linecap:butt;stroke-linejoin:miter;stroke-miterlimit:4;stroke-dasharray:0.616641, 0.616641;stroke-dashoffset:0;stroke-opacity:1"
       transform="matrix(0.35277776,0,0,0.35277776,29.633334,61.505978)"
       clip-path="url(#clipPath34)" />
    <text
       id="text34"
       xml:space="preserve"
       x="47.589615"
       y="177.32846"
       style="font-size:4.23333px;stroke-width:0.352778"><tspan
         id="tspan34"
         style="font-variant:normal;font-weight:normal;font-size:1.52276px;font-family:'DejaVu Serif';writing-mode:lr-tb;fill:#000000;fill-opacity:1;fill-rule:nonzero;stroke:none;stroke-width:0.352778"
         x="47.589615"
         y="177.32846">énergie</tspan></text>
    <path
       id="path35"
       d="m 66.841863,201.04052 v -1.19733 h 97.891597 v 1.19733"
       style="fill:none;stroke:#000000;stroke-width:0.217537;stroke-linecap:butt;stroke-linejoin:miter;stroke-miterlimit:4;stroke-dasharray:none;stroke-opacity:1" />
    <path
       id="path36"
       d="m 66.841863,199.73418 v 1.30634"
       style="fill:none;stroke:#000000;stroke-width:0.217537;stroke-linecap:butt;stroke-linejoin:miter;stroke-miterlimit:4;stroke-dasharray:none;stroke-opacity:1" />
    <text
       id="text36"
       xml:space="preserve"
       x="66.149315"
       y="203.23714"
       style="font-size:4.23333px;stroke-width:0.352778"><tspan
         id="tspan36"
         style="font-variant:normal;font-weight:normal;font-size:2.17399px;font-family:'DejaVu Sans';writing-mode:lr-tb;fill:#000000;fill-opacity:1;fill-rule:nonzero;stroke:none;stroke-width:0.352778"
         x="66.149315"
         y="203.23714">0</tspan></text>
    <path
       id="path37"
       d="m 80.629123,199.73418 v 1.30634"
       style="fill:none;stroke:#000000;stroke-width:0.217537;stroke-linecap:butt;stroke-linejoin:miter;stroke-miterlimit:4;stroke-dasharray:none;stroke-opacity:1" />
    <text
       id="text37"
       xml:space="preserve"
       x="79.244553"
       y="203.23714"
       style="font-size:4.23333px;stroke-width:0.352778"><tspan
         id="tspan37"
         style="font-variant:normal;font-weight:normal;font-size:2.17399px;font-family:'DejaVu Sans';writing-mode:lr-tb;fill:#000000;fill-opacity:1;fill-rule:nonzero;stroke:none;stroke-width:0.352778"
         x="79.244553"
         y="203.23714">20</tspan></text>
    <path
       id="path38"
       d="m 94.416384,199.73418 v 1.30634"
       style="fill:none;stroke:#000000;stroke-width:0.217537;stroke-linecap:butt;stroke-linejoin:miter;stroke-miterlimit:4;stroke-dasharray:none;stroke-opacity:1" />
    <text
       id="text38"
       xml:space="preserve"
       x="93.03212"
       y="203.23714"
       style="font-size:4.23333px;stroke-width:0.352778"><tspan
         id="tspan38"
         style="font-variant:normal;font-weight:normal;font-size:2.17399px;font-family:'DejaVu Sans';writing-mode:lr-tb;fill:#000000;fill-opacity:1;fill-rule:nonzero;stroke:none;stroke-width:0.352778"
         x="93.03212"
         y="203.23714">40</tspan></text>
    <path
       id="path39"
       d="m 108.20506,199.73418 v 1.30634"
       style="fill:none;stroke:#000000;stroke-width:0.217537;stroke-linecap:butt;stroke-linejoin:miter;stroke-miterlimit:4;stroke-dasharray:none;stroke-opacity:1" />
    <text
       id="text39"
       xml:space="preserve"
       x="106.81968"
       y="203.23714"
       style="font-size:4.23333px;stroke-width:0.352778"><tspan
         id="tspan39"
         style="font-variant:normal;font-weight:normal;font-size:2.17399px;font-family:'DejaVu Sans';writing-mode:lr-tb;fill:#000000;fill-opacity:1;fill-rule:nonzero;stroke:none;stroke-width:0.352778"
         x="106.81968"
         y="203.23714">60</tspan></text>
    <path
       id="path40"
       d="m 121.99232,199.73418 v 1.30634"
       style="fill:none;stroke:#000000;stroke-width:0.217537;stroke-linecap:butt;stroke-linejoin:miter;stroke-miterlimit:4;stroke-dasharray:none;stroke-opacity:1" />
    <text
       id="text40"
       xml:space="preserve"
       x="120.60726"
       y="203.23714"
       style="font-size:4.23333px;stroke-width:0.352778"><tspan
         id="tspan40"
         style="font-variant:normal;font-weight:normal;font-size:2.17399px;font-family:'DejaVu Sans';writing-mode:lr-tb;fill:#000000;fill-opacity:1;fill-rule:nonzero;stroke:none;stroke-width:0.352778"
         x="120.60726"
         y="203.23714">80</tspan></text>
    <path
       id="path41"
       d="m 135.77958,199.73418 v 1.30634"
       style="fill:none;stroke:#000000;stroke-width:0.217537;stroke-linecap:butt;stroke-linejoin:miter;stroke-miterlimit:4;stroke-dasharray:none;stroke-opacity:1" />
    <text
       id="text41"
       xml:space="preserve"
       x="133.70248"
       y="203.23714"
       style="font-size:4.23333px;stroke-width:0.352778"><tspan
         id="tspan41"
         style="font-variant:normal;font-weight:normal;font-size:2.17399px;font-family:'DejaVu Sans';writing-mode:lr-tb;fill:#000000;fill-opacity:1;fill-rule:nonzero;stroke:none;stroke-width:0.352778"
         x="133.70248"
         y="203.23714">100</tspan></text>
    <path
       id="path42"
       d="m 149.56684,199.73418 v 1.30634"
       style="fill:none;stroke:#000000;stroke-width:0.217537;stroke-linecap:butt;stroke-linejoin:miter;stroke-miterlimit:4;stroke-dasharray:none;stroke-opacity:1" />
    <text
       id="text42"
       xml:space="preserve"
       x="147.49004"
       y="203.23714"
       style="font-size:4.23333px;stroke-width:0.352778"><tspan
         id="tspan42"
         style="font-variant:normal;font-weight:normal;font-size:2.17399px;font-family:'DejaVu Sans';writing-mode:lr-tb;fill:#000000;fill-opacity:1;fill-rule:nonzero;stroke:none;stroke-width:0.352778"
         x="147.49004"
         y="203.23714">120</tspan></text>
    <path
       id="path43"
       d="m 163.3541,199.73418 v 1.30634"
       style="fill:none;stroke:#000000;stroke-width:0.217537;stroke-linecap:butt;stroke-linejoin:miter;stroke-miterlimit:4;stroke-dasharray:none;stroke-opacity:1" />
    <text
       id="text43"
       xml:space="preserve"
       x="161.2776"
       y="203.23714"
       style="font-size:4.23333px;stroke-width:0.352778"><tspan
         id="tspan43"
         style="font-variant:normal;font-weight:normal;font-size:2.17399px;font-family:'DejaVu Sans';writing-mode:lr-tb;fill:#000000;fill-opacity:1;fill-rule:nonzero;stroke:none;stroke-width:0.352778"
         x="161.2776"
         y="203.23714">140</tspan></text>
    <path
       id="path44"
       d="m 65.427929,199.84319 h 1.413934 v -26.10414 h -1.413934"
       style="fill:none;stroke:#000000;stroke-width:0.217537;stroke-linecap:butt;stroke-linejoin:miter;stroke-miterlimit:4;stroke-dasharray:none;stroke-opacity:1" />
    <path
       id="path45"
       d="M 66.732854,199.39375 H 65.427929"
       style="fill:none;stroke:#000000;stroke-width:0.217537;stroke-linecap:butt;stroke-linejoin:miter;stroke-miterlimit:4;stroke-dasharray:none;stroke-opacity:1" />
    <text
       id="text45"
       xml:space="preserve"
       x="61.812008"
       y="199.88075"
       style="font-size:4.23333px;stroke-width:0.352778"><tspan
         id="tspan45"
         style="font-variant:normal;font-weight:normal;font-size:1.52276px;font-family:'Liberation Sans';writing-mode:lr-tb;fill:#000000;fill-opacity:1;fill-rule:nonzero;stroke:none;stroke-width:0.352778"
         x="61.812008"
         y="199.88075">17.0</tspan></text>
    <path
       id="path46"
       d="M 66.732854,197.14338 H 65.427929"
       style="fill:none;stroke:#000000;stroke-width:0.217537;stroke-linecap:butt;stroke-linejoin:miter;stroke-miterlimit:4;stroke-dasharray:none;stroke-opacity:1" />
    <text
       id="text46"
       xml:space="preserve"
       x="61.812008"
       y="197.63037"
       style="font-size:4.23333px;stroke-width:0.352778"><tspan
         id="tspan46"
         style="font-variant:normal;font-weight:normal;font-size:1.52276px;font-family:'Liberation Sans';writing-mode:lr-tb;fill:#000000;fill-opacity:1;fill-rule:nonzero;stroke:none;stroke-width:0.352778"
         x="61.812008"
         y="197.63037">17.5</tspan></text>
    <path
       id="path47"
       d="M 66.732854,194.89301 H 65.427929"
       style="fill:none;stroke:#000000;stroke-width:0.217537;stroke-linecap:butt;stroke-linejoin:miter;stroke-miterlimit:4;stroke-dasharray:none;stroke-opacity:1" />
    <text
       id="text47"
       xml:space="preserve"
       x="61.812008"
       y="195.37999"
       style="font-size:4.23333px;stroke-width:0.352778"><tspan
         id="tspan47"
         style="font-variant:normal;font-weight:normal;font-size:1.52276px;font-family:'Liberation Sans';writing-mode:lr-tb;fill:#000000;fill-opacity:1;fill-rule:nonzero;stroke:none;stroke-width:0.352778"
         x="61.812008"
         y="195.37999">18.0</tspan></text>
    <path
       id="path48"
       d="M 66.732854,192.643 H 65.427929"
       style="fill:none;stroke:#000000;stroke-width:0.217537;stroke-linecap:butt;stroke-linejoin:miter;stroke-miterlimit:4;stroke-dasharray:none;stroke-opacity:1" />
    <text
       id="text48"
       xml:space="preserve"
       x="61.812008"
       y="193.12962"
       style="font-size:4.23333px;stroke-width:0.352778"><tspan
         id="tspan48"
         style="font-variant:normal;font-weight:normal;font-size:1.52276px;font-family:'Liberation Sans';writing-mode:lr-tb;fill:#000000;fill-opacity:1;fill-rule:nonzero;stroke:none;stroke-width:0.352778"
         x="61.812008"
         y="193.12962">18.5</tspan></text>
    <path
       id="path49"
       d="M 66.732854,190.39263 H 65.427929"
       style="fill:none;stroke:#000000;stroke-width:0.217537;stroke-linecap:butt;stroke-linejoin:miter;stroke-miterlimit:4;stroke-dasharray:none;stroke-opacity:1" />
    <text
       id="text49"
       xml:space="preserve"
       x="61.812008"
       y="190.87923"
       style="font-size:4.23333px;stroke-width:0.352778"><tspan
         id="tspan49"
         style="font-variant:normal;font-weight:normal;font-size:1.52276px;font-family:'Liberation Sans';writing-mode:lr-tb;fill:#000000;fill-opacity:1;fill-rule:nonzero;stroke:none;stroke-width:0.352778"
         x="61.812008"
         y="190.87923">19.0</tspan></text>
    <path
       id="path50"
       d="M 66.732854,188.14226 H 65.427929"
       style="fill:none;stroke:#000000;stroke-width:0.217537;stroke-linecap:butt;stroke-linejoin:miter;stroke-miterlimit:4;stroke-dasharray:none;stroke-opacity:1" />
    <text
       id="text50"
       xml:space="preserve"
       x="61.812008"
       y="188.62883"
       style="font-size:4.23333px;stroke-width:0.352778"><tspan
         id="tspan50"
         style="font-variant:normal;font-weight:normal;font-size:1.52276px;font-family:'Liberation Sans';writing-mode:lr-tb;fill:#000000;fill-opacity:1;fill-rule:nonzero;stroke:none;stroke-width:0.352778"
         x="61.812008"
         y="188.62883">19.5</tspan></text>
    <path
       id="path51"
       d="M 66.732854,185.89189 H 65.427929"
       style="fill:none;stroke:#000000;stroke-width:0.217537;stroke-linecap:butt;stroke-linejoin:miter;stroke-miterlimit:4;stroke-dasharray:none;stroke-opacity:1" />
    <text
       id="text51"
       xml:space="preserve"
       x="61.812008"
       y="186.37845"
       style="font-size:4.23333px;stroke-width:0.352778"><tspan
         id="tspan51"
         style="font-variant:normal;font-weight:normal;font-size:1.52276px;font-family:'Liberation Sans';writing-mode:lr-tb;fill:#000000;fill-opacity:1;fill-rule:nonzero;stroke:none;stroke-width:0.352778"
         x="61.812008"
         y="186.37845">20.0</tspan></text>
    <path
       id="path52"
       d="M 66.732854,183.64011 H 65.427929"
       style="fill:none;stroke:#000000;stroke-width:0.217537;stroke-linecap:butt;stroke-linejoin:miter;stroke-miterlimit:4;stroke-dasharray:none;stroke-opacity:1" />
    <text
       id="text52"
       xml:space="preserve"
       x="61.812008"
       y="184.12807"
       style="font-size:4.23333px;stroke-width:0.352778"><tspan
         id="tspan52"
         style="font-variant:normal;font-weight:normal;font-size:1.52276px;font-family:'Liberation Sans';writing-mode:lr-tb;fill:#000000;fill-opacity:1;fill-rule:nonzero;stroke:none;stroke-width:0.352778"
         x="61.812008"
         y="184.12807">20.5</tspan></text>
    <path
       id="path53"
       d="M 66.732854,181.38974 H 65.427929"
       style="fill:none;stroke:#000000;stroke-width:0.217537;stroke-linecap:butt;stroke-linejoin:miter;stroke-miterlimit:4;stroke-dasharray:none;stroke-opacity:1" />
    <text
       id="text53"
       xml:space="preserve"
       x="61.812008"
       y="181.87769"
       style="font-size:4.23333px;stroke-width:0.352778"><tspan
         id="tspan53"
         style="font-variant:normal;font-weight:normal;font-size:1.52276px;font-family:'Liberation Sans';writing-mode:lr-tb;fill:#000000;fill-opacity:1;fill-rule:nonzero;stroke:none;stroke-width:0.352778"
         x="61.812008"
         y="181.87769">21.0</tspan></text>
    <path
       id="path54"
       d="M 66.732854,179.13937 H 65.427929"
       style="fill:none;stroke:#000000;stroke-width:0.217537;stroke-linecap:butt;stroke-linejoin:miter;stroke-miterlimit:4;stroke-dasharray:none;stroke-opacity:1" />
    <text
       id="text54"
       xml:space="preserve"
       x="61.812008"
       y="179.6273"
       style="font-size:4.23333px;stroke-width:0.352778"><tspan
         id="tspan54"
         style="font-variant:normal;font-weight:normal;font-size:1.52276px;font-family:'Liberation Sans';writing-mode:lr-tb;fill:#000000;fill-opacity:1;fill-rule:nonzero;stroke:none;stroke-width:0.352778"
         x="61.812008"
         y="179.6273">21.5</tspan></text>
    <path
       id="path55"
       d="M 66.732854,176.889 H 65.427929"
       style="fill:none;stroke:#000000;stroke-width:0.217537;stroke-linecap:butt;stroke-linejoin:miter;stroke-miterlimit:4;stroke-dasharray:none;stroke-opacity:1" />
    <text
       id="text55"
       xml:space="preserve"
       x="61.812008"
       y="177.37692"
       style="font-size:4.23333px;stroke-width:0.352778"><tspan
         id="tspan55"
         style="font-variant:normal;font-weight:normal;font-size:1.52276px;font-family:'Liberation Sans';writing-mode:lr-tb;fill:#000000;fill-opacity:1;fill-rule:nonzero;stroke:none;stroke-width:0.352778"
         x="61.812008"
         y="177.37692">22.0</tspan></text>
    <path
       id="path56"
       d="M 66.732854,174.63863 H 65.427929"
       style="fill:none;stroke:#000000;stroke-width:0.217537;stroke-linecap:butt;stroke-linejoin:miter;stroke-miterlimit:4;stroke-dasharray:none;stroke-opacity:1" />
    <text
       id="text56"
       xml:space="preserve"
       x="61.812008"
       y="175.12653"
       style="font-size:4.23333px;stroke-width:0.352778"><tspan
         id="tspan56"
         style="font-variant:normal;font-weight:normal;font-size:1.52276px;font-family:'Liberation Sans';writing-mode:lr-tb;fill:#000000;fill-opacity:1;fill-rule:nonzero;stroke:none;stroke-width:0.352778"
         x="61.812008"
         y="175.12653">22.5</tspan></text>
    <text
       id="text57"
       xml:space="preserve"
       transform="rotate(-90)"
       x="-196.83429"
       y="60.206764"
       style="font-size:4.23333px;stroke-width:0.352778"><tspan
         id="tspan57"
         style="font-variant:normal;font-weight:normal;font-size:1.52276px;font-family:'Liberation Sans';writing-mode:lr-tb;fill:#000000;fill-opacity:1;fill-rule:nonzero;stroke:none;stroke-width:0.352778"
         x="-196.83429"
         dx="0 -0.16902632"
         y="60.206764">Température intérieure (°C)</tspan></text>
    <path
       id="path57"
       d="m 66.732854,199.73418 h 9.651647 l 0.689328,-11.74644 h 2.068336 l 0.688975,11.74644 h 4.135613 l 0.690387,-26.10414 0.688975,26.10414 H 88.7924 l 0.690387,-26.10414 0.688975,26.10414 h 0.689327 l 0.688975,-26.10414 H 93.6184 l 0.688975,26.10414 h 14.477645 l 0.68898,-26.10414 h 0.68897 l 0.69039,26.10414 h 14.47659 l 0.68897,-26.10414 0.69039,26.10414 h 37.91514"
       style="fill:none;stroke:#ff0000;stroke-width:0.217537;stroke-linecap:butt;stroke-linejoin:miter;stroke-miterlimit:4;stroke-dasharray:0.217537, 0.217537;stroke-dashoffset:0;stroke-opacity:1" />
    <path
       id="path58"
       d="M 66.732854,199.73418 H 92.929425 L 93.6184,173.63004 h 6.205361 l 0.688979,26.10414 h 8.96126 l 0.68897,-26.10414 h 6.20536 l 0.68898,26.10414 h 8.96161 l 0.69039,-26.10414 h 6.20395 l 0.68897,26.10414 h 31.02222 z"
       style="fill:#90cef4;fill-opacity:0.5;fill-rule:nonzero;stroke:none;stroke-width:0.352778" />
    <path
       id="path59"
       d="m 66.732854,191.18355 0.688975,0.4505 0.690386,0.44944 0.688975,0.89958 0.688975,0.45085 0.689328,0.89994 0.690386,0.89958 0.688975,0.45085 h 0.688975 l 0.688975,0.89959 0.690386,0.89993 h 0.688975 l 0.688975,0.90135 0.688975,0.44909 0.690386,0.89993 h 0.689328 l 0.688975,-0.44908 0.688975,-3.15031 0.690386,-7.2016 0.688975,4.04988 0.688975,-4.04988 0.688975,3.6008 h 0.690386 l 0.688975,-1.35044 0.688975,0.4505 0.689327,0.89994 0.690387,-1.80129 h 1.377949 l 0.688975,0.90135 0.690387,0.89994 h 0.688974 l 0.688975,-1.35044 0.690387,-0.45085 0.688975,-2.69945 h 0.689327 l 0.688975,1.34902 0.690386,-1.79952 0.688975,-1.35043 H 93.6184 l 0.688975,-0.44944 0.690386,0.44944 0.688975,-12.60228 0.688975,8.10154 0.690386,-2.69946 0.689328,3.14996 H 98.4444 l 0.688975,4.50074 0.690386,1.35043 0.688979,1.34902 0.68897,1.35043 0.68898,0.90135 0.69038,0.44944 0.68898,-0.44944 h 0.68932 l 0.68898,0.44944 h 0.69039 l 0.68897,0.4505 h 2.06834 l 0.68897,-0.4505 0.68898,-0.44944 0.68897,-4.0513 0.69039,-2.25037 0.68933,-1.35043 0.68897,-4.94983 h 1.37936 l 0.68898,-1.35078 0.68897,2.25037 0.69039,0.44944 0.68897,0.45049 0.68898,0.44944 0.68933,3.15137 0.69038,2.69945 0.68898,0.90135 h 0.68897 l 0.68898,1.34902 h 0.69038 l 0.68898,0.45085 h 0.68897 l 0.68898,-0.45085 h 2.75766 l 0.69039,-4.94982 h 0.68897 l 0.68898,-0.4505 0.68897,-0.89994 h 0.69039 l 0.68897,-1.80093 0.68898,-1.34937 0.68933,-0.89959 0.69038,0.44909 0.68898,0.4505 0.68897,1.34937 0.68898,2.70087 0.69038,2.25037 0.68898,0.89958 0.68897,-0.44908 0.69039,0.44908 1.3783,0.90135 0.68898,0.44944 0.69038,0.4505 h 1.37795 l 0.68898,0.44908 0.69038,0.45085 h 0.68898 l 0.68897,0.4505 h 0.69039 l 0.68933,1.35043 0.68897,-1.35043 0.68898,-6.30167 0.69038,-0.44944 h 0.68898 l 0.68897,1.34938 0.68898,1.35043 0.69038,1.35043 1.37795,1.79952 h 0.68933 l 0.69039,1.35043 0.68897,0.90135 h 0.68898 l 0.68897,0.44944 0.69039,0.89958 0.68897,0.45085 h 0.68898 l 0.68897,0.89994 0.69039,0.4505 h 0.68933 l 0.68897,0.44908 h 0.68898 l 0.69038,0.45085 0.68898,-3.6008 0.68897,-1.35079 0.68898,1.80129 0.69038,-1.35044 0.68898,-3.1503"
       style="fill:none;stroke:url(#linearGradient62);stroke-width:0.217537;stroke-linecap:butt;stroke-linejoin:miter;stroke-miterlimit:4;stroke-dasharray:none;stroke-opacity:1" />
  </g>
</svg>
